<svg version="1.1" xmlns="http://www.w3.org/2000/svg" viewBox="0 0 916.8055468764687 325.8580473933657" width="916.8055468764687" height="325.8580473933657">
  <!-- svg-source:excalidraw -->
  
  <defs>
    <style class="style-fonts">
      @font-face {
        font-family: "Virgil";
        src: url("https://excalidraw.com/Virgil.woff2");
      }
      @font-face {
        font-family: "Cascadia";
        src: url("https://excalidraw.com/Cascadia.woff2");
      }
    </style>
  </defs>
  <rect x="0" y="0" width="916.8055468764687" height="325.8580473933657" fill="#ffffff"></rect><g stroke-linecap="round" transform="translate(579.8055468764687 28.411641475237047) rotate(0 163.5 130)"><path d="M32 0 M32 0 C130.45 -2, 226.73 -0.29, 295 0 M32 0 C94.13 0.72, 156.32 0.94, 295 0 M295 0 C316.25 0.58, 325.96 9.33, 327 32 M295 0 C315.36 1.7, 327.71 9.57, 327 32 M327 32 C323.63 74.62, 323.83 117.91, 327 228 M327 32 C326.26 104.51, 326.88 177.67, 327 228 M327 228 C327.54 250.84, 316.48 259.84, 295 260 M327 228 C324.79 248.68, 317.99 260.67, 295 260 M295 260 C195.26 258.41, 93.78 260.44, 32 260 M295 260 C229.87 262.17, 164.92 261.49, 32 260 M32 260 C9.61 261.88, -1.9 250.37, 0 228 M32 260 C10.4 260.84, -1.75 248.27, 0 228 M0 228 C0.99 183.72, 0.25 135.23, 0 32 M0 228 C1.33 164.89, 1.44 100.81, 0 32 M0 32 C-1.24 12.24, 11.47 1.04, 32 0 M0 32 C-2.29 12.51, 11.68 -1.53, 32 0" stroke="#000000" stroke-width="1" fill="none"></path></g><g stroke-linecap="round" transform="translate(10 29.411641475237047) rotate(0 135 133)"><path d="M129.11 -0.03 C142.86 -2.61, 159.47 1.69, 173.35 5.77 C187.23 9.86, 200.71 16.17, 212.38 24.5 C224.04 32.83, 234.83 44.09, 243.36 55.78 C251.89 67.47, 259.29 81, 263.55 94.66 C267.81 108.32, 269.41 123.28, 268.93 137.72 C268.45 152.15, 265.58 167.95, 260.67 181.26 C255.75 194.58, 248.62 206.6, 239.44 217.61 C230.26 228.62, 218.32 239.69, 205.6 247.33 C192.88 254.96, 177.47 260.4, 163.12 263.42 C148.77 266.43, 133.77 267.1, 119.51 265.43 C105.24 263.75, 90.61 259.69, 77.51 253.37 C64.41 247.04, 51.45 237.74, 40.88 227.5 C30.32 217.26, 20.89 204.83, 14.13 191.93 C7.36 179.03, 2.16 164.4, 0.3 150.09 C-1.55 135.77, -0.02 120.09, 2.99 106.03 C6 91.97, 10.94 78.02, 18.36 65.72 C25.77 53.43, 36.42 41.69, 47.48 32.26 C58.54 22.83, 70.62 14.61, 84.71 9.15 C98.81 3.69, 123.41 0.77, 132.04 -0.47 C140.66 -1.72, 136.24 -0.65, 136.45 1.69 M90.53 6.64 C103.31 -0.26, 120.6 -1.32, 135.25 -1.44 C149.9 -1.56, 164.99 1.32, 178.45 5.93 C191.92 10.55, 204.31 17.19, 216.02 26.24 C227.74 35.3, 240.69 47.86, 248.76 60.26 C256.83 72.67, 260.77 87.09, 264.47 100.68 C268.17 114.27, 271.73 127.52, 270.95 141.83 C270.18 156.14, 265.62 173.01, 259.83 186.54 C254.04 200.08, 246.16 212.5, 236.23 223.05 C226.3 233.6, 213.23 242.94, 200.26 249.84 C187.29 256.74, 172.84 262.06, 158.41 264.45 C143.97 266.85, 128.28 266.67, 113.67 264.22 C99.07 261.77, 83.85 256.72, 70.78 249.75 C57.71 242.77, 44.95 232.78, 35.23 222.36 C25.51 211.95, 18.16 200.22, 12.46 187.27 C6.76 174.32, 2.45 158.92, 1.03 144.64 C-0.38 130.35, 0.44 115.68, 3.98 101.55 C7.53 87.42, 14.37 72.1, 22.31 59.86 C30.25 47.61, 40.18 37.01, 51.64 28.08 C63.1 19.16, 84.47 9.12, 91.07 6.29 C97.66 3.45, 90.63 8.67, 91.22 11.1" stroke="#000000" stroke-width="1" fill="none"></path></g><g transform="translate(123.36179675899189 134.49515706939945) rotate(0 27.5 12.5)"><text x="0" y="18" font-family="Virgil, Segoe UI Emoji" font-size="20px" fill="#000000" text-anchor="start" style="white-space: pre;" direction="ltr">Actor</text></g><g mask="url(#mask-_ph7hUxoe7_9zb9B9grcq)" stroke-linecap="round"><g transform="translate(268.03459319953413 87.80905362937239) rotate(0 152.23675171859463 2.1091077428731637)"><path d="M-0.66 0.3 C50.38 1.01, 254.25 3.68, 305.13 3.92" stroke="#000000" stroke-width="1.5" fill="none" stroke-dasharray="8 9"></path></g><g transform="translate(268.03459319953413 87.80905362937239) rotate(0 152.23675171859463 2.1091077428731637)"><path d="M277.34 14.14 C284.59 11.39, 286.9 10.47, 306.52 3.14" stroke="#000000" stroke-width="1.5" fill="none"></path></g><g transform="translate(268.03459319953413 87.80905362937239) rotate(0 152.23675171859463 2.1091077428731637)"><path d="M277.53 -6.38 C284.69 -4.83, 286.95 -1.44, 306.52 3.14" stroke="#000000" stroke-width="1.5" fill="none"></path></g></g><mask id="mask-_ph7hUxoe7_9zb9B9grcq"><rect x="0" y="0" fill="#fff" width="673.0277343823423" height="190.66088788118816"></rect><rect x="381.0311637909383" y="76.7349707552803" fill="#000" width="79" height="25" opacity="1"></rect></mask><g transform="translate(381.0311637909381 76.7349707552803) rotate(0 39.24018112719057 13.183190616965248)"><text x="39.5" y="18" font-family="Virgil, Segoe UI Emoji" font-size="20px" fill="#364fc7" text-anchor="middle" style="white-space: pre;" direction="ltr">Capture</text></g><g mask="url(#mask---U2FkIjI13PcxAozD_CI)" stroke-linecap="round"><g transform="translate(287.6348405633396 184.69296794975702) rotate(0 143.04007601706041 -0.7339518076008176)"><path d="M-0.86 -1.12 C46.84 -1.09, 239.25 -0.44, 286.94 -0.35" stroke="#000000" stroke-width="1.5" fill="none" stroke-dasharray="8 9"></path></g><g transform="translate(287.6348405633396 184.69296794975702) rotate(0 143.04007601706041 -0.7339518076008176)"><path d="M256.86 10.84 C268.17 4.51, 277.98 1.2, 285.22 1.64" stroke="#000000" stroke-width="1.5" fill="none"></path></g><g transform="translate(287.6348405633396 184.69296794975702) rotate(0 143.04007601706041 -0.7339518076008176)"><path d="M256.91 -9.69 C268.12 -8.58, 277.91 -4.45, 285.22 1.64" stroke="#000000" stroke-width="1.5" fill="none"></path></g></g><mask id="mask---U2FkIjI13PcxAozD_CI"><rect x="0" y="0" fill="#fff" width="673.969141146302" height="284.82966546146463"></rect><rect x="361.8019908548208" y="172.2613167056109" fill="#000" width="138" height="25" opacity="1"></rect></mask><g transform="translate(361.80199085482093 172.26131670561085) rotate(0 68.8729257255792 11.69769943654535)"><text x="69" y="18" font-family="Virgil, Segoe UI Emoji" font-size="20px" fill="#364fc7" text-anchor="middle" style="white-space: pre;" direction="ltr">StreamOn/Off</text></g><g mask="url(#mask-aW93L7h1e_2GcJW4rYQh4)" stroke-linecap="round"><g transform="translate(569.8055468764687 249.69070943771612) rotate(0 -158.62958375625198 -0.23582334996825693)"><path d="M1.05 0.2 C-51.99 -0.09, -265.18 -0.49, -318.31 -0.68" stroke="#000000" stroke-width="1.5" fill="none" stroke-dasharray="8 9"></path></g><g transform="translate(569.8055468764687 249.69070943771612) rotate(0 -158.62958375625198 -0.23582334996825693)"><path d="M-289.75 -11.92 C-297.33 -7.75, -305.97 -3.26, -318.73 0.46" stroke="#000000" stroke-width="1.5" fill="none"></path></g><g transform="translate(569.8055468764687 249.69070943771612) rotate(0 -158.62958375625198 -0.23582334996825693)"><path d="M-289.81 8.6 C-297.56 6.75, -306.18 5.23, -318.73 0.46" stroke="#000000" stroke-width="1.5" fill="none"></path></g></g><mask id="mask-aW93L7h1e_2GcJW4rYQh4"><rect x="0" y="0" fill="#fff" width="987.4805825103583" height="350.9324435407116"></rect><rect x="365.9680290595238" y="236.5698423862184" fill="#000" width="90" height="25" opacity="1"></rect></mask><g transform="translate(365.96802905952393 236.5698423862184) rotate(0 45.20793406069282 12.885043701529469)"><text x="45" y="18" font-family="Virgil, Segoe UI Emoji" font-size="20px" fill="#000000" text-anchor="middle" style="white-space: pre;" direction="ltr">&lt;stream&gt;</text></g><g mask="url(#mask-BqjiwSyhOOnT4ZtBfyoxd)" stroke-linecap="round"><g transform="translate(577.4157032879989 125.58018556285288) rotate(0 -151.12655339194373 -3.0371021098724498)"><path d="M-0.28 -0.84 C-50.8 -1.8, -251.52 -4.55, -301.97 -5.23" stroke="#000000" stroke-width="1.5" fill="none" stroke-dasharray="8 9"></path></g><g transform="translate(577.4157032879989 125.58018556285288) rotate(0 -151.12655339194373 -3.0371021098724498)"><path d="M-275.05 -13.63 C-284.01 -11.5, -294.65 -5.99, -302.48 -5.55" stroke="#000000" stroke-width="1.5" fill="none"></path></g><g transform="translate(577.4157032879989 125.58018556285288) rotate(0 -151.12655339194373 -3.0371021098724498)"><path d="M-275.33 6.88 C-284.27 0.92, -294.8 -1.66, -302.48 -5.55" stroke="#000000" stroke-width="1.5" fill="none"></path></g></g><mask id="mask-BqjiwSyhOOnT4ZtBfyoxd"><rect x="0" y="0" fill="#fff" width="980.2695106112369" height="231.27012477104876"></rect><rect x="388.9887996263799" y="110.2352159587549" fill="#000" width="74" height="25" opacity="1"></rect></mask><g transform="translate(388.9887996263798 110.2352159587549) rotate(0 37.30035026967528 12.307867494225519)"><text x="37" y="18" font-family="Virgil, Segoe UI Emoji" font-size="20px" fill="#000000" text-anchor="middle" style="white-space: pre;" direction="ltr">&lt;image&gt;</text></g><g transform="translate(668.441875434663 144.52632837023248) rotate(0 80.5 12.5)"><text x="0" y="18" font-family="Virgil, Segoe UI Emoji" font-size="20px" fill="#000000" text-anchor="start" style="white-space: pre;" direction="ltr">Camera Provider</text></g><g stroke-linecap="round" transform="translate(294.668124753299 45.58304692345922) rotate(0 129.69304711142172 86.99906265859343)"><path d="M7.86 8.16 C7.86 8.16, 7.86 8.16, 7.86 8.16 M7.86 8.16 C7.86 8.16, 7.86 8.16, 7.86 8.16 M3.66 19.09 C5.52 14.46, 9.26 10.84, 18.1 2.48 M3.66 19.09 C8.38 12.92, 14.14 7.42, 18.1 2.48 M2.75 26.24 C6.53 19.14, 12.29 14.81, 24.4 1.33 M2.75 26.24 C8.35 21.3, 12.3 15.65, 24.4 1.33 M2.48 32.64 C10.03 22.92, 19.53 13.22, 30.7 0.18 M2.48 32.64 C9.73 24.43, 17.38 16.24, 30.7 0.18 M2.88 38.28 C11.75 24.79, 25.58 16.11, 34.37 2.05 M2.88 38.28 C11.21 28.86, 18.68 18.8, 34.37 2.05 M2.62 44.68 C18.57 29.13, 31.78 10.74, 39.36 2.41 M2.62 44.68 C15.21 28.88, 29.64 15, 39.36 2.41 M2.36 51.07 C18.7 33.83, 31.53 16.39, 45 2.02 M2.36 51.07 C17.23 36.07, 30.71 19.79, 45 2.02 M2.75 56.72 C14.82 43.67, 26.01 29.1, 49.99 2.38 M2.75 56.72 C17.36 40.34, 29.49 26.26, 49.99 2.38 M2.49 63.11 C17.05 44.15, 34.83 24.92, 55.63 1.98 M2.49 63.11 C17.28 46.77, 32.38 29.4, 55.63 1.98 M2.88 68.76 C19.69 48.7, 37.76 31.37, 60.62 2.34 M2.88 68.76 C22.78 46.44, 43.9 22.43, 60.62 2.34 M2.62 75.16 C19.45 54.31, 37.1 36.86, 66.26 1.95 M2.62 75.16 C23.31 52.8, 41.67 31.21, 66.26 1.95 M2.36 81.55 C19.63 63.22, 34.28 43.64, 71.25 2.31 M2.36 81.55 C29.9 52.53, 54.67 21.48, 71.25 2.31 M2.76 87.2 C20.49 66.6, 36.42 49.34, 76.89 1.91 M2.76 87.2 C24.06 64.4, 43.4 41.33, 76.89 1.91 M2.49 93.59 C25.28 65.66, 53.2 37.44, 81.88 2.27 M2.49 93.59 C28.59 63.34, 56.16 33.5, 81.88 2.27 M2.89 99.24 C36.75 59.97, 67.65 21.97, 87.52 1.88 M2.89 99.24 C20.32 79.29, 37.31 57.64, 87.52 1.88 M2.63 105.64 C38.18 66.08, 72.17 29.54, 92.51 2.24 M2.63 105.64 C27.27 78.64, 51.92 49.69, 92.51 2.24 M2.37 112.03 C32.51 73.5, 64.27 40.14, 98.15 1.85 M2.37 112.03 C25.29 86.77, 46.61 62.98, 98.15 1.85 M2.76 117.68 C29.25 89.41, 54.29 61.97, 103.14 2.21 M2.76 117.68 C38.54 78.08, 73.2 35.5, 103.14 2.21 M2.5 124.07 C28.31 91.46, 56.51 62.06, 108.78 1.81 M2.5 124.07 C39.61 82.7, 75.17 42.2, 108.78 1.81 M2.89 129.72 C45.8 84.32, 86.09 35.37, 113.77 2.17 M2.89 129.72 C32.56 93.35, 64.03 58.34, 113.77 2.17 M2.63 136.11 C37.3 97.25, 68.38 60.31, 119.41 1.78 M2.63 136.11 C37.51 95.65, 72.43 55.68, 119.41 1.78 M2.37 142.51 C40.27 101.97, 76.33 57.43, 124.4 2.14 M2.37 142.51 C31.51 110.73, 59.54 79.68, 124.4 2.14 M1.45 149.67 C27.28 122.03, 55.53 91.52, 130.04 1.74 M1.45 149.67 C48.06 95.58, 93.37 42.27, 130.04 1.74 M2.5 154.55 C40.8 109.29, 80.94 61.56, 135.03 2.1 M2.5 154.55 C45.6 105.37, 89.22 54.23, 135.03 2.1 M4.21 158.69 C48.55 109.2, 89.63 58.77, 140.67 1.71 M4.21 158.69 C43.29 113.76, 81.3 67.91, 140.67 1.71 M5.92 162.82 C46.44 117.13, 87.87 68.63, 145.66 2.07 M5.92 162.82 C60.58 101.25, 114.91 37.93, 145.66 2.07 M8.94 165.44 C63.72 98.95, 121.93 34.45, 150.65 2.43 M8.94 165.44 C59.63 108.26, 111.23 50.49, 150.65 2.43 M11.96 168.07 C54.68 119.5, 95.68 73.19, 156.29 2.03 M11.96 168.07 C63.98 110.34, 113.7 53.71, 156.29 2.03 M14.32 171.45 C57.69 119.98, 100.87 70.71, 161.28 2.39 M14.32 171.45 C68.53 111.04, 120.29 50.9, 161.28 2.39 M18.65 172.56 C74.51 106.37, 134.91 39.41, 166.92 2 M18.65 172.56 C57.05 129.66, 94.91 85.22, 166.92 2 M22.98 173.68 C76.96 109.92, 134.31 45.16, 171.91 2.36 M22.98 173.68 C80.89 107.03, 139.78 39.51, 171.91 2.36 M26.65 175.55 C60.54 139.92, 90.88 102.82, 177.55 1.96 M26.65 175.55 C67.37 129.29, 108.02 83.16, 177.55 1.96 M32.95 174.4 C68.28 131.09, 107.56 87.77, 182.54 2.32 M32.95 174.4 C75.73 125.38, 118.53 75.38, 182.54 2.32 M37.94 174.76 C71.42 139.85, 101.93 101.24, 188.18 1.93 M37.94 174.76 C76.66 131.7, 115.61 87.73, 188.18 1.93 M43.58 174.36 C84.29 129, 126.91 77.94, 193.17 2.29 M43.58 174.36 C96.89 114.26, 151.43 52.51, 193.17 2.29 M48.57 174.72 C104.46 111.37, 160 47.5, 198.81 1.9 M48.57 174.72 C78.53 139.12, 110.06 103.46, 198.81 1.9 M54.21 174.33 C91.64 133.17, 129.37 87.58, 203.8 2.26 M54.21 174.33 C90.56 131.92, 127.82 88.03, 203.8 2.26 M59.2 174.69 C113.08 116.26, 161.47 56.25, 209.44 1.86 M59.2 174.69 C91.79 135.92, 124.62 98.92, 209.44 1.86 M64.84 174.29 C103.63 129.57, 144.75 82.16, 214.43 2.22 M64.84 174.29 C113.04 118.99, 160.33 64.29, 214.43 2.22 M69.83 174.65 C110.98 127.87, 150.04 79.56, 220.07 1.83 M69.83 174.65 C113.94 123.35, 158.3 71.11, 220.07 1.83 M74.82 175.01 C122.42 120.95, 171.72 63.07, 225.06 2.19 M74.82 175.01 C109.16 134.55, 144.02 95.06, 225.06 2.19 M80.46 174.62 C136.79 108.57, 196.99 40.24, 230.04 2.55 M80.46 174.62 C135.21 109.92, 189.43 46.51, 230.04 2.55 M85.45 174.98 C132.15 124.69, 173.65 73.06, 236.34 1.4 M85.45 174.98 C139.24 112.44, 194.14 49.9, 236.34 1.4 M91.09 174.59 C120.63 138.2, 151.94 100.91, 240.02 3.27 M91.09 174.59 C130.3 128.31, 169.98 81.62, 240.02 3.27 M96.08 174.95 C146.88 118.1, 196.29 59.28, 244.35 4.38 M96.08 174.95 C154.99 105.79, 214.75 39.34, 244.35 4.38 M101.72 174.55 C150.83 116.84, 201.65 58.24, 248.68 5.5 M101.72 174.55 C152.12 117.49, 200.87 60.54, 248.68 5.5 M106.71 174.91 C150.12 123.16, 196.24 75.77, 251.04 8.88 M106.71 174.91 C157.51 117.54, 208.47 58.54, 251.04 8.88 M112.35 174.52 C152.73 127.77, 193.96 82.7, 254.06 11.5 M112.35 174.52 C145.95 135.88, 178.47 97.38, 254.06 11.5 M117.34 174.88 C163.47 122.24, 210.12 71.23, 257.08 14.12 M117.34 174.88 C164.64 122.32, 210.71 67.93, 257.08 14.12 M122.98 174.48 C149.97 143.06, 178.83 110.59, 258.13 19.01 M122.98 174.48 C168.56 120.41, 215.18 67.96, 258.13 19.01 M127.97 174.84 C156.6 139.83, 187.43 102.4, 259.18 23.9 M127.97 174.84 C176.64 118.73, 225.83 62.68, 259.18 23.9 M133.61 174.45 C185.04 119.5, 234.6 58.96, 259.58 29.54 M133.61 174.45 C177.2 126.25, 219.8 78.41, 259.58 29.54 M138.6 174.81 C181.04 127.95, 219.95 80.46, 261.28 33.68 M138.6 174.81 C163.78 144.65, 188.48 116.57, 261.28 33.68 M144.24 174.41 C190.82 120.82, 233.88 70.6, 261.02 40.07 M144.24 174.41 C169.75 145.9, 195.34 116.01, 261.02 40.07 M149.23 174.77 C175.22 140.52, 204.92 110.54, 261.42 45.72 M149.23 174.77 C182.47 137.79, 215.4 99.33, 261.42 45.72 M154.87 174.38 C178.97 145.38, 203.83 117.02, 261.15 52.12 M154.87 174.38 C187.69 139.31, 217.45 102.28, 261.15 52.12 M159.86 174.74 C185.49 145.67, 206.65 119.43, 261.55 57.76 M159.86 174.74 C179.63 150.19, 200.22 127, 261.55 57.76 M165.5 174.34 C190.11 145.81, 219.75 116.66, 261.29 64.16 M165.5 174.34 C203.76 131.5, 240.16 87.35, 261.29 64.16 M170.49 174.7 C196.61 146.98, 222.6 116.74, 261.03 70.55 M170.49 174.7 C190.03 153.35, 208.78 130.37, 261.03 70.55 M176.13 174.31 C202.74 145.14, 228.67 113.19, 261.42 76.2 M176.13 174.31 C194.98 150.07, 215.38 128.45, 261.42 76.2 M181.12 174.67 C199.06 152.02, 220.56 128.64, 261.16 82.6 M181.12 174.67 C204.15 146.21, 228.06 119.39, 261.16 82.6 M186.76 174.28 C207.42 152.94, 227.87 132.57, 261.55 88.24 M186.76 174.28 C208.58 150.56, 229.62 124.61, 261.55 88.24 M191.75 174.64 C211.35 151.43, 233.63 127.26, 261.29 94.64 M191.75 174.64 C218.38 144.51, 244.94 113.76, 261.29 94.64 M196.74 175 C217.78 152.72, 236.1 128.87, 261.03 101.03 M196.74 175 C214.65 153.28, 233.32 132.07, 261.03 101.03 M202.38 174.6 C217.62 157.99, 231.99 143.14, 261.42 106.68 M202.38 174.6 C218.3 157.57, 234.49 139.9, 261.42 106.68 M207.37 174.96 C226.09 152.74, 245.85 133.62, 261.16 113.07 M207.37 174.96 C224.69 156.14, 243.21 135.73, 261.16 113.07 M213.01 174.57 C224.57 161.83, 233.14 148.26, 261.56 118.72 M213.01 174.57 C226.87 159.18, 239.8 143.16, 261.56 118.72 M218 174.93 C231.18 157.47, 248.91 140.42, 261.3 125.12 M218 174.93 C233.51 155.35, 250.52 136.62, 261.3 125.12 M223.64 174.53 C232.42 162.98, 242.41 151.63, 261.04 131.51 M223.64 174.53 C234.38 162.11, 244.76 151.27, 261.04 131.51 M228.63 174.89 C240 161.95, 249.41 148.67, 261.43 137.16 M228.63 174.89 C239.04 161.98, 251.38 149.21, 261.43 137.16 M234.27 174.5 C239.33 168.57, 247.99 160.95, 261.17 143.55 M234.27 174.5 C244.43 162.07, 256.32 150.81, 261.17 143.55 M241.88 171.84 C249.19 163.95, 251.11 159.42, 260.25 150.71 M241.88 171.84 C245.85 166.61, 250.53 162.57, 260.25 150.71" stroke="#15aabf" stroke-width="0.5" fill="none"></path><path d="M32 0 M32 0 C95.75 0.44, 162.85 -0.82, 227.39 0 M227.39 0 C248.98 -1.2, 259.46 9.07, 259.39 32 M259.39 32 C258.1 53.9, 257.54 76.78, 259.39 142 M259.39 142 C259.61 165.07, 247.34 175, 227.39 174 M227.39 174 C171.24 173.46, 112.63 171.94, 32 174 M32 174 C9.27 173.13, 0.35 163.83, 0 142 M0 142 C-0.22 108.49, 2.67 75.94, 0 32 M0 32 C-1.2 11.94, 10.36 -1.72, 32 0" stroke="#000000" stroke-width="1.5" fill="none" stroke-dasharray="8 9"></path></g><g transform="translate(347.83421860021735 10) rotate(0 85.5 12.5)"><text x="0" y="18" font-family="Virgil, Segoe UI Emoji" font-size="20px" fill="#0b7285" text-anchor="start" style="white-space: pre;" direction="ltr">Camera interface</text></g><g stroke-linecap="round" transform="translate(296.2792185062359 230.85882851120448) rotate(0 129.69304711142166 24.569179732287978)"><path d="M3.27 2.84 C3.27 2.84, 3.27 2.84, 3.27 2.84 M3.27 2.84 C3.27 2.84, 3.27 2.84, 3.27 2.84 M0.38 12.26 C1.52 9.18, 5.72 6.62, 10.23 0.94 M0.38 12.26 C2.79 9.25, 5.95 5.27, 10.23 0.94 M0.12 18.66 C4.77 15.09, 9.4 7.01, 14.56 2.05 M0.12 18.66 C3.71 13.55, 8.16 9.07, 14.56 2.05 M0.52 24.3 C8 17.64, 15.4 9.94, 20.2 1.66 M0.52 24.3 C6.09 19.17, 11.02 12.76, 20.2 1.66 M0.91 29.94 C9.47 21.32, 16.09 12.48, 25.19 2.02 M0.91 29.94 C8.69 20.08, 16.94 11.48, 25.19 2.02 M0.65 36.34 C10.11 23.87, 20.07 13.73, 30.17 2.38 M0.65 36.34 C10.85 24.12, 22.05 11.38, 30.17 2.38 M1.05 41.98 C8.73 31.1, 18.52 21.83, 35.82 1.98 M1.05 41.98 C12.87 27.79, 25.53 13.83, 35.82 1.98 M2.75 46.12 C10.87 38.08, 18.74 27.25, 40.8 2.34 M2.75 46.12 C11.97 34.91, 20.7 23.79, 40.8 2.34 M5.77 48.74 C16.98 33.98, 31.32 22.08, 46.45 1.95 M5.77 48.74 C17.32 36.12, 26.04 24.56, 46.45 1.95 M10.1 49.86 C25.45 32.81, 40.01 17.89, 51.43 2.31 M10.1 49.86 C26.01 30.52, 42.2 12.78, 51.43 2.31 M15.74 49.46 C25.54 39.45, 34.66 29.25, 57.08 1.92 M15.74 49.46 C25.32 37.49, 34.46 27.37, 57.08 1.92 M20.73 49.82 C33.08 35.89, 46.68 22.01, 62.06 2.28 M20.73 49.82 C30.34 38.08, 40.95 26.63, 62.06 2.28 M26.37 49.43 C34.56 40.52, 46.15 27.12, 67.71 1.88 M26.37 49.43 C41.5 32.63, 57.26 15.32, 67.71 1.88 M31.36 49.79 C43.19 39.37, 50.89 26.28, 72.69 2.24 M31.36 49.79 C47.95 30.51, 63.64 11.99, 72.69 2.24 M37 49.39 C51.93 34.91, 65.44 19.98, 78.34 1.85 M37 49.39 C48.2 37.04, 58.87 23.21, 78.34 1.85 M41.99 49.75 C52.21 34.38, 66.68 21.02, 83.32 2.21 M41.99 49.75 C52.89 35.92, 64.33 23.29, 83.32 2.21 M47.63 49.36 C58.31 36.19, 72.07 21.56, 88.97 1.81 M47.63 49.36 C58.99 36.43, 70.22 24.36, 88.97 1.81 M52.62 49.72 C69.18 33.93, 83.79 17.34, 93.95 2.17 M52.62 49.72 C64.31 35.67, 75.86 22.85, 93.95 2.17 M57.61 50.08 C70.14 37.38, 81.42 23.18, 99.6 1.78 M57.61 50.08 C73.8 32.15, 91.01 13.13, 99.6 1.78 M63.25 49.68 C72.39 39.3, 80.56 31.93, 104.58 2.14 M63.25 49.68 C75.82 35.46, 87.39 22.49, 104.58 2.14 M68.24 50.04 C77.59 38.24, 89.46 24.84, 110.23 1.74 M68.24 50.04 C85.11 31.63, 100.8 12.5, 110.23 1.74 M73.88 49.65 C84.17 38.11, 95.79 23.17, 115.21 2.1 M73.88 49.65 C86.85 34.99, 100.54 18.68, 115.21 2.1 M78.87 50.01 C94.4 33.59, 107.68 17, 120.2 2.46 M78.87 50.01 C91.42 35.13, 104.63 20.82, 120.2 2.46 M84.51 49.62 C97.96 35.74, 109.93 21.03, 125.84 2.07 M84.51 49.62 C95.88 36.06, 106.4 24.19, 125.84 2.07 M89.5 49.98 C103.1 35.74, 115.75 22.14, 130.83 2.43 M89.5 49.98 C103.39 33.54, 116.83 19.18, 130.83 2.43 M95.14 49.58 C106.92 33.96, 119.04 22.26, 136.47 2.03 M95.14 49.58 C111.63 30.33, 127.16 12.73, 136.47 2.03 M100.13 49.94 C112.29 39.75, 122.81 24.38, 141.46 2.39 M100.13 49.94 C115.59 33.46, 129.02 16.88, 141.46 2.39 M105.77 49.55 C115.14 39.8, 121.46 30.14, 147.1 2 M105.77 49.55 C122.16 31.23, 138.25 11.01, 147.1 2 M110.76 49.91 C125 34.55, 136.24 21.36, 152.09 2.36 M110.76 49.91 C125.88 32.98, 140.98 17.08, 152.09 2.36 M116.4 49.51 C126.43 39.96, 135.15 30.03, 157.73 1.96 M116.4 49.51 C130.84 32.04, 147.29 14.71, 157.73 1.96 M121.39 49.87 C132.13 34.86, 146.33 23.35, 162.72 2.33 M121.39 49.87 C132.82 36.87, 143.62 25.8, 162.72 2.33 M127.03 49.48 C137.21 39.06, 145.72 28.02, 168.36 1.93 M127.03 49.48 C136.88 38.5, 148.16 26.13, 168.36 1.93 M132.02 49.84 C149.97 31.22, 164.66 14.78, 173.35 2.29 M132.02 49.84 C143.54 35.85, 155.3 24.12, 173.35 2.29 M137.66 49.44 C152.52 30.97, 167.33 13.79, 178.99 1.9 M137.66 49.44 C151.87 34.15, 163.99 18.51, 178.99 1.9 M142.65 49.8 C159.8 32.77, 174.89 13.56, 183.98 2.26 M142.65 49.8 C156.57 32.12, 169.9 16.32, 183.98 2.26 M147.64 50.16 C160.56 34.29, 176.3 17.88, 189.62 1.86 M147.64 50.16 C163.25 31.67, 179.92 13.13, 189.62 1.86 M153.28 49.77 C168.32 31.56, 185.98 14.81, 194.61 2.22 M153.28 49.77 C165.29 33.56, 178.56 20.47, 194.61 2.22 M158.27 50.13 C168.48 36.35, 179.4 25.16, 200.25 1.83 M158.27 50.13 C172.72 34, 185.15 17.08, 200.25 1.83 M163.91 49.73 C178.32 32, 194.33 15.39, 205.24 2.19 M163.91 49.73 C178.46 33.82, 192.68 17.57, 205.24 2.19 M168.9 50.09 C177.37 40.66, 189.36 29.19, 210.88 1.79 M168.9 50.09 C185.27 30.49, 202.03 11.97, 210.88 1.79 M174.54 49.7 C186.62 34.94, 197.72 25.89, 215.87 2.15 M174.54 49.7 C186.45 35.72, 199.42 21.46, 215.87 2.15 M179.53 50.06 C190.83 36.44, 204.73 21.53, 220.86 2.51 M179.53 50.06 C190.14 37.53, 202.25 22.47, 220.86 2.51 M185.17 49.66 C192.6 39.23, 204.36 29.32, 226.5 2.12 M185.17 49.66 C200.82 31.89, 216.03 12.94, 226.5 2.12 M190.16 50.02 C201.69 32.75, 216.7 19.97, 231.49 2.48 M190.16 50.02 C201.06 38.76, 210.13 27.09, 231.49 2.48 M195.8 49.63 C207.73 36.17, 217.93 26.4, 237.13 2.08 M195.8 49.63 C206.6 37.61, 217.06 24.62, 237.13 2.08 M200.79 49.99 C210.53 40.31, 219.43 28.31, 242.12 2.44 M200.79 49.99 C210.56 38.75, 220.05 25.83, 242.12 2.44 M206.43 49.6 C223.42 30.1, 237.36 12.31, 247.76 2.05 M206.43 49.6 C221.56 31.78, 237.3 14.87, 247.76 2.05 M211.42 49.96 C226.99 32.75, 236.47 17.87, 252.75 2.41 M211.42 49.96 C224.44 35.06, 238.61 18.06, 252.75 2.41 M217.06 49.56 C233.73 32, 247.15 14.71, 257.08 3.52 M217.06 49.56 C225.07 40.47, 234.11 29.76, 257.08 3.52 M222.05 49.92 C233.6 37.54, 245.21 21.5, 258.79 7.66 M222.05 49.92 C231.84 36.34, 244.48 25.49, 258.79 7.66 M227.69 49.53 C238.65 36.73, 251.94 25.39, 259.18 13.3 M227.69 49.53 C236.19 39.91, 242.97 31.66, 259.18 13.3 M232.68 49.89 C238.93 42.35, 243.96 35.15, 259.58 18.94 M232.68 49.89 C239.07 42.99, 244.65 36.14, 259.58 18.94 M238.32 49.49 C247.98 42.22, 253.46 32.04, 259.31 25.34 M238.32 49.49 C242.74 44.76, 247.62 39.53, 259.31 25.34 M243.31 49.85 C247.48 44.62, 252.72 41.33, 259.71 30.98 M243.31 49.85 C249.32 43.98, 254.5 38.86, 259.71 30.98 M248.29 50.21 C249.75 47.64, 253.05 42.79, 259.45 37.38 M248.29 50.21 C252.3 46.31, 255.55 41.11, 259.45 37.38" stroke="#fd7e14" stroke-width="0.5" fill="none"></path><path d="M12.28 0 M12.28 0 C79.97 1.07, 149.35 -0.37, 247.1 0 M247.1 0 C255.11 -1.17, 261.01 6.08, 259.39 12.28 M259.39 12.28 C258.58 20.5, 259.5 25.14, 259.39 36.85 M259.39 36.85 C258.47 44.5, 255.49 48.25, 247.1 49.14 M247.1 49.14 C178.8 49.97, 109.47 47.6, 12.28 49.14 M12.28 49.14 C3.43 51.06, -0.63 45.77, 0 36.85 M0 36.85 C1.61 28.53, -2.01 17.31, 0 12.28 M0 12.28 C-0.35 5.39, 2.12 -1.26, 12.28 0" stroke="#000000" stroke-width="1.5" fill="none" stroke-dasharray="8 9"></path></g><g transform="translate(342.08335937059474 290.8580473933657) rotate(0 64.5 12.5)"><text x="0" y="18" font-family="Virgil, Segoe UI Emoji" font-size="20px" fill="#d9480f" text-anchor="start" style="white-space: pre;" direction="ltr">Image server</text></g></svg>